# xmcd
#
# Track frame offsets:
#	150
#	24545
#	40755
#	57337
#	72342
#	85965
#	96455
#	112747
#	127492
#	142345
#	158105
#	185472
#	206090
#	224510
#	238547
#	253940
#	268142
#	282592
#	295447
#
# Disc length: 4265
#
# Revision: 1
# Processed by: cddbd v1.5.1PL0 Copyright (c) Steve Scherf et al.
# Submitted via: CDex 1.40Release
# Normalized: r0:DSETVAR1,TDELIM( - )
#
DISCID=3e10a713
DTITLE=Various Artist - The Blues Just Like Yesterday
DYEAR=1996
DGENRE=Blues
TTITLE0=Jimmy Witherspoon - Killing Time
TTITLE1=Jerry Portroy and The Streamliners - Poison Kisses
TTITLE2=Lowell Fulson - Do You Love Me
TTITLE3=Stan Webb's Chicken Shack - Evil
TTITLE4=Duster Bennett - The Rolling Stone
TTITLE5=Alexis Korner and Blues Inc - See See Rider
TTITLE6=Honey Boy Edwards - Black Cat
TTITLE7=The Joe Dummer Blues Band - Nine By Nine
TTITLE8=Paul Jones - Work Song (Live)
TTITLE9=Lightnin' Slim - Too Close Blues (Live)
TTITLE10=Norman Beaker - Modern Days, Lonely Night
TTITLE11=Jimmy Witherspoon - Help Me Operator
TTITLE12=Lowell Fulson - Monday Morning Blues
TTITLE13=Jerry Portnoy and The Streamliners - Blue In A Dream
TTITLE14=The John Dummer Blues Band - Down Home Girl
TTITLE15=Alexis Korner and Blues Inc - River's Invitation
TTITLE16=Mick Abraham's Blodwyn Pig - It's Only love (Live)
TTITLE17=Stan Webb's Chicken Shack - I'm Tore Down
TTITLE18=The Blues Band - Fat City
EXTD=YEAR: 1996 ID3G: 0
EXTT0=
EXTT1=
EXTT2=
EXTT3=
EXTT4=
EXTT5=
EXTT6=
EXTT7=
EXTT8=
EXTT9=
EXTT10=
EXTT11=
EXTT12=
EXTT13=
EXTT14=
EXTT15=
EXTT16=
EXTT17=
EXTT18=
PLAYORDER=
